<?xml version="1.0" encoding="iso-8859-1"?>
<!-- Generator: Adobe Illustrator 19.0.0, SVG Export Plug-In . SVG Version: 6.00 Build 0)  -->
<svg xmlns="http://www.w3.org/2000/svg" xmlns:xlink="http://www.w3.org/1999/xlink" version="1.1" id="Layer_1" x="0px" y="0px" viewBox="0 0 512 512" style="enable-background:new 0 0 512 512;" xml:space="preserve">
<g>
	<g>
		<path d="M96.912,398.391c-2.069-2.071-4.941-3.261-7.868-3.261c-2.927,0-5.799,1.19-7.869,3.261    c-2.07,2.071-3.261,4.942-3.261,7.869s1.19,5.799,3.261,7.868c2.07,2.071,4.942,3.262,7.869,3.262    c2.927,0,5.788-1.191,7.868-3.262c2.071-2.069,3.262-4.941,3.262-7.868S98.983,400.461,96.912,398.391z"/>
	</g>
</g>
<g>
	<g>
		<path d="M500.87,328.347h-10.867c1.755-5.28,2.671-10.852,2.671-16.528c0-6.146-4.984-11.13-11.13-11.13h-15.003    c2.844-2.989,5.352-6.334,7.466-9.997c6.991-12.109,8.848-26.216,5.229-39.722c-0.765-2.852-2.629-5.282-5.186-6.758    c-2.558-1.477-5.599-1.877-8.446-1.112l-14.492,3.882c1.973-3.622,3.529-7.503,4.624-11.589    c3.62-13.506,1.762-27.614-5.229-39.722c-3.074-5.321-9.88-7.147-15.204-4.074l-13.031,7.524    c4.161-17.169-0.446-36.05-13.826-49.429c-4.348-4.345-11.393-4.345-15.742,0L382.096,160.3c-0.102-4.123-0.696-8.263-1.79-12.349    c-3.619-13.507-12.28-24.794-24.389-31.785c-5.325-3.075-12.13-1.25-15.204,4.074l-7.524,13.031    c-4.98-16.951-18.411-30.997-36.688-35.895c-2.853-0.765-5.89-0.365-8.447,1.112c-2.557,1.476-4.422,3.907-5.186,6.758    l-3.895,14.535c-9.197-15.084-25.806-25.174-44.729-25.174c-6.146,0-11.13,4.984-11.13,11.13v15.003    c-2.989-2.844-6.334-5.352-9.997-7.465c-12.11-6.992-26.213-8.85-39.722-5.229c-5.937,1.592-9.461,7.694-7.869,13.631    l3.895,14.534c-15.508-8.464-34.937-8.898-51.322,0.563c-2.557,1.476-4.422,3.907-5.186,6.758    c-0.765,2.852-0.364,5.889,1.112,8.446l7.524,13.03c-17.174-4.161-36.051,0.449-49.429,13.826c-4.346,4.346-4.346,11.394,0,15.742    l10.608,10.608c-4.123,0.102-8.264,0.696-12.349,1.79c-13.507,3.619-24.794,12.28-31.786,24.389    c-3.074,5.324-1.25,12.13,4.074,15.204l12.994,7.502c-3.957,1.166-7.802,2.81-11.465,4.926    c-12.109,6.99-20.771,18.278-24.39,31.784c-0.765,2.853-0.364,5.89,1.112,8.447s3.907,4.422,6.758,5.186l14.532,3.893    c-7.906,4.806-14.502,11.689-18.971,20.04H11.13c-6.146,0-11.13,4.984-11.13,11.13v66.783c0,6.146,4.984,11.13,11.13,11.13h44.522    c6.146,0,11.13-4.984,11.13-11.13s-4.984-11.13-11.13-11.13H22.261v-44.522h8.195h136.5h178.087h125.841h18.855v11.13h-66.783    c-6.146,0-11.13,4.984-11.13,11.13s4.984,11.13,11.13,11.13h66.783v11.13H122.436c-6.146,0-11.13,4.984-11.13,11.13    s4.984,11.13,11.13,11.13H500.87c6.146,0,11.13-4.984,11.13-11.13v-66.783C512,333.331,507.016,328.347,500.87,328.347z     M178.879,328.347c5.417-37.708,37.938-66.783,77.121-66.783s71.703,29.075,77.121,66.783H178.879z M465.467,328.346H355.552    v0.001c-5.555-50.017-48.079-89.043-99.552-89.043c-51.473,0-93.998,39.027-99.552,89.043H52.197    c4.932-3.433,10.892-5.397,17.183-5.397h1.145c5.673,0,10.438-4.266,11.063-9.904c0.27-2.444,0.557-4.659,0.874-6.767    c0.843-5.601-2.655-10.941-8.126-12.407L46.23,286.34c2.414-3.24,5.488-5.984,9.092-8.064c6.959-4.019,15.066-5.086,22.839-3.003    l1.066,0.285c5.476,1.464,11.169-1.419,13.236-6.694c0.786-2.007,1.644-4.066,2.62-6.298c2.278-5.195,0.285-11.272-4.628-14.108    l-25.188-14.543c3.171-2.504,6.849-4.36,10.87-5.437c7.762-2.08,15.871-1.013,22.836,3.01l0.994,0.573    c4.906,2.831,11.156,1.523,14.517-3.036c1.322-1.793,2.72-3.612,4.154-5.403c3.545-4.429,3.191-10.814-0.819-14.825    l-20.584-20.582c10.978-4.709,24.213-2.593,33.159,6.351l0.815,0.817c4.008,4.02,10.4,4.38,14.835,0.83    c1.786-1.429,3.606-2.828,5.406-4.157c4.558-3.364,5.862-9.616,3.03-14.521l-14.549-25.2c11.834-1.712,24.062,3.765,30.389,14.724    l0.557,0.965c2.834,4.915,8.909,6.913,14.106,4.637c2.243-0.982,4.305-1.84,6.309-2.626c5.275-2.068,8.153-7.769,6.687-13.242    l-7.524-28.081c4.013,0.471,7.926,1.76,11.53,3.841c6.96,4.017,11.937,10.505,14.019,18.273l0.293,1.09    c1.468,5.467,6.804,8.962,12.402,8.122c2.147-0.322,4.361-0.608,6.768-0.874c5.64-0.623,9.908-5.389,9.908-11.063v-29.098    c11.096,4.433,18.955,15.292,18.955,27.952v1.145c0,5.675,4.27,10.441,9.909,11.063c2.406,0.266,4.62,0.551,6.768,0.874    c5.598,0.838,10.936-2.657,12.403-8.127l7.526-28.088c9.571,7.155,14.352,19.676,11.076,31.901l-0.286,1.065    c-1.469,5.474,1.411,11.178,6.688,13.247c2.003,0.785,4.066,1.644,6.304,2.623c5.199,2.275,11.27,0.282,14.104-4.63l14.542-25.187    c2.505,3.171,4.36,6.85,5.437,10.871c2.08,7.762,1.013,15.87-3.006,22.831l-0.573,0.993c-2.832,4.905-1.527,11.155,3.031,14.52    c1.804,1.331,3.623,2.73,5.403,4.155c4.429,3.547,10.815,3.193,14.827-0.817l20.581-20.581c4.71,10.98,2.591,24.215-6.357,33.163    l-0.816,0.815c-4.014,4.01-4.371,10.397-0.827,14.827c1.434,1.794,2.834,3.614,4.158,5.409c3.365,4.558,9.616,5.861,14.521,3.03    l25.215-14.557c0.583,3.998,0.351,8.111-0.726,12.131c-2.08,7.763-7.059,14.25-14.029,18.275l-0.965,0.559    c-4.903,2.838-6.892,8.908-4.619,14.098c0.988,2.257,1.847,4.319,2.622,6.301c2.067,5.277,7.771,8.159,13.244,6.692l28.081-7.524    c-0.471,4.013-1.761,7.926-3.841,11.53c-4.018,6.96-10.506,11.937-18.274,14.019l-1.09,0.293    c-5.468,1.468-8.963,6.807-8.121,12.406c0.317,2.109,0.603,4.323,0.874,6.767c0.626,5.638,5.39,9.904,11.063,9.904h29.102    C467.529,324.833,466.588,326.641,465.467,328.346z"/>
	</g>
</g>
<g>
	<g>
		<path d="M397.433,365c-2.069-2.07-4.941-3.261-7.868-3.261c-2.927,0-5.799,1.19-7.869,3.261c-2.07,2.071-3.261,4.942-3.261,7.869    s1.19,5.799,3.261,7.868c2.07,2.07,4.942,3.262,7.869,3.262c2.927,0,5.799-1.191,7.868-3.262c2.071-2.069,3.262-4.941,3.262-7.868    S399.505,367.07,397.433,365z"/>
	</g>
</g>
<g>
</g>
<g>
</g>
<g>
</g>
<g>
</g>
<g>
</g>
<g>
</g>
<g>
</g>
<g>
</g>
<g>
</g>
<g>
</g>
<g>
</g>
<g>
</g>
<g>
</g>
<g>
</g>
<g>
</g>
</svg>
