<?xml version="1.0" encoding="iso-8859-1"?>
<!-- Generator: Adobe Illustrator 19.0.0, SVG Export Plug-In . SVG Version: 6.00 Build 0)  -->
<svg xmlns="http://www.w3.org/2000/svg" xmlns:xlink="http://www.w3.org/1999/xlink" version="1.1" id="Layer_1" x="0px" y="0px" viewBox="0 0 511.999 511.999" style="enable-background:new 0 0 511.999 511.999;" xml:space="preserve">
<g>
	<g>
		<path d="M500.758,91.217h-1.34c-1.946,0-3.647-1.239-4.134-3.009c-2.219-8.056-5.427-15.827-9.538-23.098    c-0.963-1.705-0.678-3.855,0.689-5.221l0.949-0.948c2.11-2.108,3.296-4.967,3.297-7.95c0.001-2.982-1.184-5.843-3.292-7.952    l-18.43-18.43c-4.391-4.388-11.506-4.388-15.898,0l-0.949,0.949c-1.372,1.372-3.522,1.656-5.223,0.694    c-7.272-4.111-15.043-7.32-23.097-9.537c-1.773-0.489-3.011-2.189-3.011-4.135v-1.339C420.781,5.034,415.748,0,409.54,0h-26.063    c-6.207,0-11.241,5.034-11.241,11.241v1.34c0,1.946-1.239,3.647-3.009,4.134c-8.056,2.219-15.827,5.427-23.098,9.538    c-1.708,0.963-3.853,0.679-5.221-0.689l-0.948-0.949c-2.108-2.11-4.967-3.296-7.95-3.297c-0.001,0-0.002,0-0.003,0    c-2.981,0-5.841,1.185-7.948,3.292l-18.43,18.43c-2.109,2.109-3.294,4.97-3.292,7.952c0.001,2.982,1.187,5.842,3.297,7.95    l0.943,0.942c1.373,1.373,1.658,3.521,0.694,5.225c-4.109,7.268-7.318,15.04-9.536,23.096c-0.489,1.774-2.19,3.014-4.136,3.014    h-1.34c-6.207,0-11.241,5.034-11.241,11.241v26.062c0,6.207,5.034,11.241,11.241,11.241h1.34c1.946,0,3.647,1.239,4.134,3.009    c2.219,8.054,5.426,15.825,9.538,23.1c0.962,1.704,0.678,3.852-0.694,5.223l-0.949,0.949c-2.108,2.109-3.292,4.967-3.292,7.948    s1.185,5.841,3.292,7.948l18.43,18.428c4.391,4.388,11.506,4.388,15.898,0l0.949-0.949c1.371-1.37,3.52-1.659,5.224-0.691    c7.273,4.11,15.044,7.318,23.096,9.535c1.773,0.489,3.011,2.189,3.011,4.136v1.34c0,6.207,5.034,11.241,11.241,11.241h26.062    c6.207,0,11.241-5.034,11.241-11.241v-1.34c0-1.946,1.239-3.647,3.01-4.134c8.054-2.219,15.825-5.426,23.1-9.538    c1.703-0.963,3.851-0.679,5.226,0.699l0.949,0.948c4.392,4.385,11.503,4.384,15.894-0.005l18.43-18.428    c2.108-2.108,3.292-4.967,3.292-7.948s-1.185-5.84-3.292-7.948l-0.948-0.948c-1.372-1.372-1.659-3.522-0.695-5.225    c4.111-7.272,7.32-15.043,9.537-23.097c0.489-1.773,2.189-3.011,4.135-3.011h1.34c6.207,0,11.241-5.034,11.241-11.241v-26.063    C511.999,96.251,506.967,91.217,500.758,91.217z M489.517,119.171c-7.627,3.023-13.654,9.449-15.909,17.634    c-1.728,6.278-4.23,12.336-7.432,18.002c-4.209,7.444-4.513,16.292-1.283,23.834l-5.233,5.233    c-7.542-3.233-16.39-2.927-23.834,1.283c-5.668,3.205-11.724,5.705-18.003,7.434c-8.183,2.254-14.61,8.281-17.634,15.908h-7.361    c-3.023-7.627-9.449-13.654-17.634-15.909c-6.278-1.728-12.335-4.229-18-7.431c-7.446-4.21-16.293-4.516-23.838-1.285l-5.23-5.23    c3.231-7.544,2.926-16.392-1.284-23.835c-3.205-5.668-5.705-11.724-7.434-18.005c-2.254-8.182-8.281-14.608-15.908-17.631v-7.361    c7.625-3.024,13.653-9.449,15.909-17.635c1.729-6.281,4.23-12.338,7.431-18c4.209-7.444,4.516-16.291,1.284-23.835l5.233-5.233    c7.542,3.232,16.392,2.926,23.835-1.284c5.665-3.204,11.723-5.705,18.003-7.434c8.182-2.254,14.608-8.281,17.631-15.908h7.362    c3.023,7.627,9.449,13.654,17.634,15.909c6.278,1.728,12.336,4.23,18.002,7.432c7.445,4.209,16.292,4.516,23.834,1.284    l5.232,5.232c-3.229,7.543-2.926,16.39,1.284,23.835c3.204,5.665,5.705,11.723,7.434,18.003    c2.254,8.182,8.281,14.608,15.908,17.631V119.171z"/>
	</g>
</g>
<g>
	<g>
		<path d="M441.316,70.683c-24.708-24.706-64.907-24.704-89.613,0c-24.705,24.706-24.705,64.906,0,89.614    c12.354,12.353,28.58,18.528,44.806,18.528c16.226,0,32.453-6.176,44.806-18.528C466.021,135.591,466.021,95.391,441.316,70.683z     M425.419,144.399c-15.941,15.94-41.878,15.941-57.819,0c-15.941-15.941-15.941-41.878,0-57.819    c7.971-7.971,18.438-11.956,28.909-11.956c10.469,0,20.94,3.986,28.909,11.956C441.36,102.521,441.36,128.458,425.419,144.399z"/>
	</g>
</g>
<g>
	<g>
		<path d="M224.729,232.52c-51.544-21.347-110.837,3.214-132.184,54.751c-21.346,51.539,3.214,110.837,54.751,132.184    c12.621,5.226,25.705,7.702,38.583,7.702c39.718,0,77.479-23.536,93.6-62.454c0.001,0,0.001,0,0.001,0    C300.827,313.166,276.265,253.868,224.729,232.52z M258.709,356.1c-16.604,40.084-62.727,59.189-102.81,42.584    c-40.085-16.604-59.188-62.723-42.585-102.809c12.539-30.272,41.906-48.574,72.801-48.574c10.015,0,20.197,1.926,30.009,5.99    C256.21,269.895,275.313,316.014,258.709,356.1z"/>
	</g>
</g>
<g>
	<g>
		<path d="M365.082,363.66l-13.517-5.599c4.101-21.132,4.1-42.981-0.004-64.144l13.522-5.599c2.754-1.142,4.942-3.33,6.083-6.084    c1.142-2.754,1.142-5.85,0-8.604l-17.208-41.541c-2.374-5.736-8.949-8.455-14.686-6.084l-13.521,5.6    c-12.062-17.865-27.511-33.316-45.354-45.358l5.599-13.517c2.375-5.736-0.348-12.311-6.084-14.686l-41.541-17.208    c-2.755-1.142-5.849-1.141-8.604-0.001c-2.754,1.142-4.942,3.33-6.082,6.084l-5.599,13.517c-21.133-4.102-42.982-4.1-64.144,0.004    l-5.601-13.522c-2.375-5.735-8.95-8.459-14.686-6.082l-41.541,17.208c-5.736,2.375-8.459,8.951-6.084,14.686l5.6,13.521    c-17.865,12.06-33.315,27.51-45.358,45.354l-13.517-5.599c-5.736-2.371-12.31,0.35-14.686,6.084L0.859,273.628    c-1.142,2.754-1.142,5.85-0.001,8.604c1.142,2.754,3.33,4.942,6.084,6.082l13.518,5.599c-4.102,21.134-4.101,42.983,0.003,64.144    l-13.522,5.601c-5.736,2.375-8.459,8.951-6.082,14.686l17.208,41.541c2.375,5.735,8.95,8.454,14.686,6.084l13.521-5.6    c12.062,17.865,27.511,33.316,45.354,45.358l-5.599,13.517c-2.375,5.736,0.349,12.311,6.084,14.686l41.541,17.208    c2.755,1.142,5.849,1.141,8.604,0.001c2.754-1.142,4.941-3.33,6.082-6.084l5.599-13.517c21.133,4.101,42.982,4.101,64.144-0.005    l5.601,13.522c1.793,4.329,5.978,6.942,10.389,6.942c1.433,0,2.89-0.276,4.297-0.86l41.541-17.208    c5.736-2.375,8.459-8.951,6.084-14.686l-5.6-13.521c17.865-12.06,33.315-27.51,45.358-45.354l13.517,5.599    c5.738,2.372,12.312-0.349,14.686-6.084l17.208-41.541c1.142-2.754,1.142-5.85,0.001-8.604    C370.025,366.989,367.836,364.8,365.082,363.66z M337.49,400.899l-11.868-4.917c-5.165-2.136-11.122-0.156-13.974,4.657    c-12.396,20.926-30.029,38.558-50.989,50.986c-4.809,2.852-6.792,8.805-4.653,13.971l4.917,11.869l-20.771,8.604l-4.918-11.87    c-1.772-4.279-5.927-6.94-10.381-6.94c-0.922,0-1.856,0.114-2.787,0.352c-23.612,6.032-48.547,6.032-72.107,0.002    c-5.42-1.386-11.032,1.422-13.173,6.587l-4.916,11.869l-20.771-8.604l4.917-11.868c2.139-5.169,0.156-11.123-4.657-13.974    c-20.925-12.396-38.556-30.028-50.985-50.989c-2.852-4.809-8.802-6.791-13.971-4.653l-11.869,4.917l-8.604-20.771l11.87-4.918    c5.165-2.139,7.973-7.751,6.588-13.168c-6.032-23.61-6.033-48.545-0.002-72.107c1.387-5.418-1.421-11.032-6.587-13.173    l-11.869-4.916l8.604-20.771l11.868,4.917c5.169,2.139,11.123,0.157,13.974-4.657c12.396-20.926,30.029-38.557,50.989-50.985    c4.809-2.852,6.792-8.805,4.653-13.971l-4.917-11.869l20.771-8.604l4.918,11.87c2.138,5.165,7.746,7.977,13.168,6.588    c23.612-6.032,48.547-6.032,72.107-0.002c5.422,1.388,11.032-1.422,13.173-6.587l4.916-11.869l20.771,8.604l-4.917,11.868    c-2.139,5.169-0.156,11.123,4.657,13.974c20.925,12.396,38.556,30.028,50.986,50.989c2.852,4.809,8.802,6.789,13.971,4.653    l11.869-4.917l8.604,20.771l-11.87,4.916c-5.165,2.14-7.973,7.751-6.588,13.169c6.032,23.613,6.033,48.547,0.002,72.108    c-1.387,5.418,1.421,11.032,6.587,13.173l11.869,4.916L337.49,400.899z"/>
	</g>
</g>
<g>
	<g>
		<path d="M242.221,325.122c-0.129-6.208-5.289-11.114-11.473-11.006c-6.206,0.129-11.134,5.266-11.005,11.472l0.003,0.201    c0.064,6.167,5.083,11.123,11.238,11.123c0.039,0,0.079-0.001,0.119-0.001c6.207-0.065,11.187-5.152,11.123-11.359    L242.221,325.122z"/>
	</g>
</g>
<g>
	<g>
		<path d="M226.57,287.061c-5.392-5.624-11.802-9.998-19.05-13c-7.005-2.901-14.366-4.337-21.905-4.288    c-6.207,0.046-11.204,5.116-11.159,11.323c0.046,6.18,5.07,11.159,11.239,11.159c0.028,0,0.057,0,0.084,0    c4.53-0.055,8.928,0.834,13.138,2.578c4.356,1.804,8.2,4.427,11.426,7.79c2.208,2.303,5.158,3.461,8.115,3.461    c2.798,0,5.6-1.039,7.779-3.127C230.718,298.658,230.868,291.542,226.57,287.061z"/>
	</g>
</g>
<g>
</g>
<g>
</g>
<g>
</g>
<g>
</g>
<g>
</g>
<g>
</g>
<g>
</g>
<g>
</g>
<g>
</g>
<g>
</g>
<g>
</g>
<g>
</g>
<g>
</g>
<g>
</g>
<g>
</g>
</svg>
