<?xml version="1.0" encoding="iso-8859-1"?>
<!-- Generator: Adobe Illustrator 19.0.0, SVG Export Plug-In . SVG Version: 6.00 Build 0)  -->
<svg xmlns="http://www.w3.org/2000/svg" xmlns:xlink="http://www.w3.org/1999/xlink" version="1.1" id="Layer_1" x="0px" y="0px" viewBox="0 0 512 512" style="enable-background:new 0 0 512 512;" xml:space="preserve">
<g>
	<g>
		<path d="M367.304,0H144.696c-6.147,0-11.13,4.983-11.13,11.13v155.826c0,6.147,4.983,11.13,11.13,11.13h11.13v33.391    c0,6.147,4.983,11.13,11.13,11.13h55.652v66.733l-10.237,4.241c-8.24,3.413-14.658,9.832-18.071,18.071    c-3.413,8.24-3.413,17.317,0,25.557c4.966,11.989,16.155,19.555,28.308,20.5v20.675l-10.237,4.241    c-17.011,7.046-25.117,26.617-18.071,43.628c4.966,11.989,16.155,19.555,28.308,20.5v31.855C222.609,497.021,237.588,512,256,512    s33.391-14.979,33.391-33.391v-55.602l10.237-4.241c8.24-3.413,14.658-9.831,18.071-18.071c3.413-8.24,3.413-17.317,0-25.557    c-4.966-11.989-16.155-19.555-28.308-20.5v-20.675l10.237-4.241c17.011-7.046,25.117-26.617,18.071-43.628    c-4.966-11.989-16.155-19.555-28.308-20.5v-42.986h55.652c6.147,0,11.13-4.983,11.13-11.13v-33.391h11.13    c6.147,0,11.13-4.983,11.13-11.13V11.13C378.435,4.983,373.452,0,367.304,0z M297.134,294.615c1.138,2.747,1.138,5.773,0,8.519    c-1.138,2.746-3.277,4.885-6.024,6.024l-17.107,7.086c-4.159,1.723-6.871,5.781-6.871,10.283v40.854    c0,3.718,1.891,7.175,4.982,9.24c3.091,2.065,7.043,2.438,10.478,1.014c5.671-2.35,12.195,0.354,14.543,6.024    c1.138,2.747,1.138,5.773,0,8.519c-1.138,2.746-3.277,4.885-6.024,6.024l-17.107,7.086c-4.159,1.723-6.871,5.781-6.871,10.283    v63.037c0,6.137-4.993,11.13-11.13,11.13c-6.137,0-11.13-4.993-11.13-11.13v-44.597c0-3.718-1.891-7.175-4.982-9.24    c-1.852-1.237-4.013-1.867-6.186-1.867c-1.455,0-2.915,0.282-4.292,0.853c-5.673,2.346-12.196-0.354-14.543-6.024    c-1.138-2.747-1.138-5.773,0-8.519c1.138-2.746,3.277-4.885,6.024-6.024L238,396.103c4.158-1.723,6.871-5.781,6.871-10.283    v-40.853c0-3.718-1.891-7.175-4.982-9.24c-3.09-2.065-7.043-2.438-10.478-1.014c-5.673,2.347-12.196-0.354-14.543-6.024    c-1.138-2.747-1.138-5.773,0-8.519c1.138-2.746,3.277-4.885,6.024-6.024l17.107-7.087c4.158-1.723,6.871-5.781,6.871-10.283    v-74.167h22.261v55.728c0,3.718,1.891,7.175,4.982,9.24c3.091,2.065,7.043,2.438,10.478,1.014    C288.262,286.243,294.785,288.944,297.134,294.615z M356.174,155.826h-11.13h-22.261c-6.147,0-11.13,4.983-11.13,11.13    s4.983,11.13,11.13,11.13h11.13v22.261h-55.652h-44.522h-55.652v-22.261H256c6.147,0,11.13-4.983,11.13-11.13    s-4.983-11.13-11.13-11.13h-89.043h-11.13V55.652h55.652c6.147,0,11.13-4.983,11.13-11.13s-4.983-11.13-11.13-11.13h-55.652    v-11.13h200.348V155.826z"/>
	</g>
</g>
<g>
	<g>
		<path d="M252.739,36.653c-2.07-2.07-4.942-3.261-7.869-3.261s-5.799,1.191-7.869,3.261s-3.261,4.942-3.261,7.869    s1.191,5.799,3.261,7.869c2.07,2.07,4.942,3.261,7.869,3.261s5.799-1.191,7.869-3.261c2.07-2.07,3.261-4.942,3.261-7.869    S254.809,38.723,252.739,36.653z"/>
	</g>
</g>
<g>
	<g>
		<path d="M297.261,159.087c-2.07-2.07-4.942-3.261-7.869-3.261s-5.799,1.191-7.869,3.261c-2.07,2.07-3.261,4.942-3.261,7.869    s1.191,5.799,3.261,7.869s4.942,3.261,7.869,3.261s5.799-1.191,7.869-3.261c2.07-2.07,3.261-4.942,3.261-7.869    S299.331,161.158,297.261,159.087z"/>
	</g>
</g>
<g>
</g>
<g>
</g>
<g>
</g>
<g>
</g>
<g>
</g>
<g>
</g>
<g>
</g>
<g>
</g>
<g>
</g>
<g>
</g>
<g>
</g>
<g>
</g>
<g>
</g>
<g>
</g>
<g>
</g>
</svg>
