<?xml version="1.0" encoding="iso-8859-1"?>
<!-- Generator: Adobe Illustrator 19.0.0, SVG Export Plug-In . SVG Version: 6.00 Build 0)  -->
<svg version="1.1" id="Layer_1" xmlns="http://www.w3.org/2000/svg" xmlns:xlink="http://www.w3.org/1999/xlink" x="0px" y="0px"
	 viewBox="0 0 512.001 512.001" style="enable-background:new 0 0 512.001 512.001;" xml:space="preserve">
<g>
	<g>
		<path d="M506.615,3.363c-4.486-4.484-11.757-4.484-16.245,0l-29.734,29.734l-8.934-8.934c-2.155-2.154-5.076-3.364-8.122-3.364
			s-5.967,1.211-8.122,3.364L285.19,174.431l-5.685-5.684c-4.487-4.484-11.757-4.484-16.245,0l-10.05,10.05l-14.213-14.213
			l3.248-3.249c4.485-4.485,4.485-11.758,0-16.245c-4.486-4.484-11.759-4.484-16.245,0l-22.741,22.743
			c-4.485,4.485-4.485,11.758,0,16.245c2.243,2.242,5.183,3.364,8.122,3.364c2.939,0,5.88-1.122,8.122-3.364l3.248-3.248
			l14.213,14.212l-48.653,48.653l-44.165-44.165c-3.471-3.47-8.765-4.352-13.173-2.194c-4.408,2.159-6.959,6.88-6.345,11.75
			l10.992,87.3l-6.371,6.371c-4.485,4.485-4.485,11.758,0,16.245l5.686,5.686l-18.316,18.316L16.18,318.995
			c-4.999-1.195-10.185,1.077-12.696,5.564c-2.51,4.486-1.732,10.094,1.902,13.729l57.973,57.974l-1.509,1.509
			c-4.485,4.485-4.485,11.758,0,16.245l87.716,87.716c1.886,1.886,4.369,3.056,7.024,3.311l71.879,6.904
			c0.369,0.036,0.737,0.053,1.103,0.053c4.411,0,8.477-2.54,10.385-6.587c2.068-4.383,1.16-9.593-2.267-13.021l-82.437-82.437
			l32.475-32.475l10.559,10.559c0.086,0.086,0.179,0.159,0.268,0.241l71.624,71.623c3.426,3.426,8.638,4.333,13.021,2.267
			c4.383-2.068,6.998-6.663,6.534-11.487l-6.904-71.878c-0.255-2.656-1.425-5.139-3.311-7.024l-24.365-24.366l93.39-93.39
			c4.485-4.485,4.485-11.758,0-16.245l-10.558-10.559L488.251,76.957c4.485-4.485,4.485-11.758,0-16.245l-11.37-11.37l29.734-29.734
			C511.1,15.123,511.1,7.85,506.615,3.363z M172.069,259.939l-15.883,15.883l-4.576-36.343L172.069,259.939z M50.374,350.788
			l47.182,11.278l-17.952,17.952L50.374,350.788z M130.885,401.832c-2.154,2.155-3.364,5.076-3.364,8.122s1.211,5.967,3.364,8.122
			l67.947,67.946l-35.94-3.452l-76.677-76.678l1.509-1.509l63.453-63.453l20.304,20.304L130.885,401.832z M260.357,385.109
			l3.452,35.939l-41.143-41.143l16.244-16.244L260.357,385.109z M305.902,264.179l-16.379-16.379
			c-4.486-4.484-11.757-4.484-16.245,0c-4.485,4.485-4.485,11.758,0,16.245l16.379,16.379l-16.244,16.244l-16.379-16.379
			c-4.487-4.484-11.757-4.484-16.245,0c-4.485,4.485-4.485,11.758,0,16.245l16.379,16.379l-16.244,16.244l-16.379-16.379
			c-4.487-4.484-11.757-4.484-16.245,0c-4.485,4.485-4.485,11.758,0,16.245l16.379,16.379l-18.274,18.274l-52.793-52.793
			L271.38,193.115l52.793,52.793L305.902,264.179z M321.74,210.98l-20.305-20.305L443.58,48.529l20.305,20.305L321.74,210.98z"/>
	</g>
</g>
<g>
</g>
<g>
</g>
<g>
</g>
<g>
</g>
<g>
</g>
<g>
</g>
<g>
</g>
<g>
</g>
<g>
</g>
<g>
</g>
<g>
</g>
<g>
</g>
<g>
</g>
<g>
</g>
<g>
</g>
</svg>
